# AST/ASF file generated using VICON BodyLanguage
# -----------------------------------------------
:version 1.10
:name VICON
:units
  mass 1.0
  length 0.45
  angle deg
:documentation
   .ast/.asf automatically generated from VICON data using
   VICON BodyBuilder and BodyLanguage model FoxedUp or BRILLIANT.MOD
:root
   order TX TY TZ RX RY RZ
   axis XYZ
   position 0 0 0  
   orientation 0 0 0 
:bonedata
  begin
     id 1 
     name lhipjoint
     direction 0.611804 -0.747784 0.257906 
     length 2.29243 
     axis 0 0 0  XYZ
  end
  begin
     id 2 
     name lfemur
     direction 0.34202 -0.939693 0  
     length 7.31159  
     axis 0 0 20  XYZ
    dof rx ry rz
    limits (-160.0 20.0)
           (-70.0 70.0)
           (-60.0 70.0)
  end
  begin
     id 3 
     name ltibia
     direction 0.34202 -0.939693 0   
     length 7.33391   
     axis 0 0 20   XYZ
    dof rx
    limits (-10.0 170.0)
  end
  begin
     id 4 
     name lfoot
     direction 0.122263 -0.335914 0.933924   
     length 1.76083   
     axis -90 7.62852e-016 20   XYZ
    dof rx rz
    limits (-45.0 90.0)
           (-70.0 20.0)
  end
  begin
     id 5 
     name ltoes
     direction 1.53533e-011 -4.2177e-011 1   
     length 0.879206   
     axis -90 7.62852e-016 20   XYZ
    dof rx
    limits (-90.0 20.0)
  end
  begin
     id 6 
     name rhipjoint
     direction -0.646469 -0.721248 0.248754   
     length 2.37677  
     axis 0 0 0  XYZ 
  end
  begin
     id 7 
     name rfemur
     direction -0.34202 -0.939693 0   
     length 7.18623   
     axis 0 0 -20   XYZ
    dof rx ry rz
    limits (-160.0 20.0)
           (-70.0 70.0)
           (-70.0 60.0)
  end
  begin
     id 8 
     name rtibia
     direction -0.34202 -0.939693 0   
     length 7.36567   
     axis 0 0 -20   XYZ
    dof rx
    limits (-10.0 170.0)
 end
 begin
     id 9 
     name rfoot
     direction -0.126681 -0.348054 0.928876   
     length 1.71902  
     axis -90 -7.62852e-016 -20   XYZ
    dof rx rz
    limits (-45.0 90.0)
           (-20.0 70.0)
  end
  begin
     id 10 
     name rtoes
     direction -1.53551e-011 -4.21898e-011 1   
     length 0.857792   
     axis -90 -7.62852e-016 -20   XYZ
    dof rx
    limits (-90.0 20.0)
  end
  begin
     id 11 
     name lowerback
     direction 0.0106509 0.999778 0.0181844   
     length 2.07668   
     axis 0 0 0   XYZ
    dof rx ry rz
    limits (-20.0 45.0)
           (-30.0 30.0)
           (-30.0 30.0)
  end
  begin
     id 12 
     name upperback
     direction -0.00456018 0.999989 -0.000590935   
     length 2.08011   
     axis 0 0 0   XYZ
    dof rx ry rz
    limits (-20.0 45.0)
           (-30.0 30.0)
           (-30.0 30.0)
  end
  begin
     id 13 
     name thorax
     direction -0.00910382 0.999916 -0.00923765   
     length 2.07397   
     axis 0 0 0   XYZ
    dof rx ry rz
    limits (-20.0 45.0)
           (-30.0 30.0)
           (-30.0 30.0)
  end
  begin
     id 14 
     name lowerneck
     direction 0.00171967 0.99778 0.0665733   
     length 1.67556   
     axis 0 0 0   XYZ
    dof rx ry rz
    limits (-20.0 45.0)
           (-30.0 30.0)
           (-30.0 30.0)
  end
  begin
     id 15 
     name upperneck
     direction -0.0143166 0.991302 -0.130828   
     length 1.68462   
     axis 0 0 0   XYZ
    dof rx ry rz
    limits (-20.0 45.0)
           (-30.0 30.0)
           (-30.0 30.0)
  end
  begin
     id 16
     name head
     direction -0.00606378 0.998665 -0.0512995  
     length 1.69269  
     axis 0 0 0   XYZ
    dof rx ry rz
    limits (-20.0 45.0)
           (-30.0 30.0)
           (-30.0 30.0)
  end
  begin
     id 17 
     name lclavicle
     direction 0.9638 0.179341 0.197297  
     length 4.12888  
     axis 0 0 0   XYZ
    dof ry rz
    limits (-20.0 10.0)
           (0.0 20.0)
  end
  begin
     id 18 
     name lhumerus
     direction 1 -4.48972e-011 -2.47351e-027   
     length 5.01834   
     axis -180 -30 -90   XYZ
    dof rx ry rz
    limits (-60.0 90.0)
           (-90.0 90.0)
           (-90.0 90.0)
  end
  begin
     id 19
     name lradius
     direction 1 -4.48965e-011 1.51591e-026   
     length 3.4869   
     axis -180 -30 -90   XYZ
    dof rx
    limits (-10.0 170.0)
  end
  begin
     id 20
     name lwrist
     direction 1 -4.48957e-011 2.70032e-026   
     length 1.74345   
     axis -1.81515e-014 90 90   XYZ
    dof ry
    limits (-180.0 0.0)
 end
  begin
     id 21 
     name lhand
     direction 1 -4.48951e-011 5.40064e-026   
     length 0.76799   
     axis -3.44607e-014 90 90   XYZ
    dof rx rz
    limits (-90.0 90.0)
           (-45.0 45.0)
  end
  begin
     id 22 
     name lfingers
     direction 1 -4.48971e-011 1.08013e-025   
     length 0.619174   
     axis -6.89214e-014 90 90   XYZ
    dof rx
    limits (0.0 90.0)
  end
  begin
     id 23
     name lthumb
     direction 0.707107 -6.34931e-011 0.707107   
     length 0.889013   
     axis -90 45 2.85299e-015   XYZ
    dof rx rz
    limits (-45.0 45.0)
           (-45.0 45.0)
  end
  begin
     id 24 
     name rclavicle
     direction -0.961409 0.252588 0.109054   
     length 4.04305  
     axis 0 0 0   XYZ 
    dof ry rz
    limits (-10.0 20.0)
           (-20.0 0.0)
  end
  begin
     id 25 
     name rhumerus
     direction -1 -4.4897e-011 1.33872e-017  
     length 4.70164   
     axis -180 30 90   XYZ
    dof rx ry rz
    limits (-90.0 60.0)
           (-90.0 90.0)
           (-90.0 90.0)
  end
  begin
     id 26 
     name rradius
     direction -1 -4.48954e-011 1.83844e-026   
     length 3.49911   
     axis -180 30 90   XYZ
    dof rx
    limits (-10.0 170.0)
  end
  begin
     id 27 
     name rwrist
     direction -1 -4.49008e-011 2.70032e-026   
     length 1.74955   
     axis -1.81515e-014 -90 -90   XYZ
    dof ry
    limits (-180.0 0.0)
  end
  begin
     id 28
     name rhand
     direction -1 -4.48916e-011 5.40064e-026   
     length 0.739335   
     axis -3.44607e-014 -90 -90   XYZ
    dof rx rz
    limits (-90.0 90.0)
           (-45.0 45.0)
  end
  begin
     id 29
     name rfingers
     direction -1 -4.48987e-011 1.08013e-025   
     length 0.596071   
     axis -6.89214e-014 -90 -90   XYZ
    dof rx
    limits (0.0 90.0)
  end
  begin
     id 30
     name rthumb
     direction -0.707107 -6.34935e-011 0.707107   
     length 0.855843   
     axis -90 -45 -2.85299e-015   XYZ
    dof rx rz
    limits (-45.0 45.0)
           (-45.0 45.0)
  end
:hierarchy
  begin
    root lhipjoint rhipjoint lowerback
    lhipjoint lfemur
    lfemur ltibia
    ltibia lfoot
    lfoot ltoes
    rhipjoint rfemur
    rfemur rtibia
    rtibia rfoot
    rfoot rtoes
    lowerback upperback
    upperback thorax
    thorax lowerneck lclavicle rclavicle
    lowerneck upperneck
    upperneck head
    lclavicle lhumerus
    lhumerus lradius
    lradius lwrist
    lwrist lhand lthumb
    lhand lfingers
    rclavicle rhumerus
    rhumerus rradius
    rradius rwrist
    rwrist rhand rthumb
    rhand rfingers
  end

#!OML:ASF I:\salsa\salsa 7_09\Patient 1\Session 1\dancermale.ASF
:FULLY-SPECIFIED
:DEGREES
1053
root -8.95203 16.6275 1.75008 5.4204 -30.8044 1.76793
lowerback -3.69991 2.61192 -0.196306
upperback -1.39317 3.49835 -1.82413
thorax 0.744004 1.74371 -1.60794
lowerneck -4.95979 11.2447 7.4093
upperneck 33.8894 17.4062 -7.18195
head 13.6417 7.71433 -1.72705
rclavicle 4.70871e-015 -1.23246e-014
rhumerus -48.7274 -23.9925 -42.761
rradius 77.6187
rwrist -40.2779
rhand -2.3515 6.88188
rfingers 7.12502
rthumb 23.3362 -21.7236
lclavicle 4.70871e-015 -1.23246e-014
lhumerus -45.9834 -34.5535 99.9413
lradius 99.1732
lwrist -22.6083
lhand -26.8687 59.4
lfingers 7.12502
lthumb -0.293296 -270.62
rfemur -15.9337 8.25432 15.8638
rtibia 47.186
rfoot -30.2051 6.31584
rtoes -17.8986
lfemur -37.41 -8.43524 -21.7776
ltibia 20.4807
lfoot 4.40288 -14.6021
ltoes -19.7538
1054
root -8.92528 16.6731 1.50347 6.31725 -29.6488 1.33728
lowerback -3.99325 2.75851 0.0940166
upperback -1.42402 3.68416 -1.6162
thorax 0.885661 1.83704 -1.534
lowerneck -5.06822 11.1756 7.21913
upperneck 33.8419 17.2788 -6.98371
head 13.5841 7.66732 -1.63389
rclavicle -2.08165e-014 1.47101e-014
rhumerus -48.6953 -23.5546 -43.2086
rradius 78.0854
rwrist -40.3681
rhand -2.03426 7.09989
rfingers 7.12502
rthumb 23.6405 -21.4666
lclavicle -2.08165e-014 1.47101e-014
lhumerus -46.0035 -34.3681 100.555
lradius 99.1232
lwrist -22.5445
lhand -26.1237 58.344
lfingers 7.12502
lthumb 0.42627 -271.677
rfemur -15.6061 6.87975 16.6718
rtibia 44.0562
rfoot -31.1329 3.96153
rtoes -20.6088
lfemur -37.6791 -5.82979 -22.09
ltibia 19.0607
lfoot 4.59103 -13.6369
ltoes -18.401
1055
root -8.89619 16.7177 1.26168 6.90564 -28.5038 0.905286
lowerback -4.10449 2.92505 0.431611
upperback -1.33321 3.89368 -1.43041
thorax 1.05625 1.94325 -1.51199
lowerneck -5.17298 11.059 7.07836
upperneck 33.7372 17.0678 -6.79499
head 13.4993 7.59058 -1.56612
rclavicle 1.1368e-015 -1.76918e-014
rhumerus -48.7013 -23.0066 -43.7427
rradius 78.7738
rwrist -40.529
rhand -1.81475 6.94776
rfingers 7.12502
rthumb 23.8511 -21.5914
lclavicle 1.1368e-015 -1.76918e-014
lhumerus -46.1676 -34.1949 101.207
lradius 99.3323
lwrist -22.2625
lhand -25.426 57.2992
lfingers 7.12502
lthumb 1.10015 -272.724
rfemur -15.1666 6.27752 17.6179
rtibia 41.2239
rfoot -31.4149 1.75164
rtoes -22.4734
lfemur -37.9525 -3.19254 -22.6986
ltibia 19.7083
lfoot 1.19663 -12.9278
ltoes -20.8603
1056
root -8.8643 16.7619 1.02222 7.34301 -27.2316 0.540312
lowerback -4.11167 2.98067 0.639788
upperback -1.23075 3.95835 -1.19747
thorax 1.16492 1.97705 -1.38218
lowerneck -5.23951 11.0163 7.02314
upperneck 33.7167 16.9954 -6.70197
head 13.4797 7.57053 -1.52762
rclavicle -6.34496e-014 -4.17448e-015
rhumerus -48.5144 -22.3215 -44.3798
rradius 79.53
rwrist -40.5204
rhand -1.62396 6.89377
rfingers 7.12502
rthumb 24.034 -21.6214
lclavicle -6.34496e-014 -4.17448e-015
lhumerus -46.4817 -33.8231 101.95
lradius 99.6136
lwrist -21.8141
lhand -25.3074 56.8799
lfingers 7.12502
lthumb 1.21467 -273.144
rfemur -15.0972 6.33318 18.6226
rtibia 39.2596
rfoot -31.1947 -0.25224
rtoes -21.7745
lfemur -38.2433 -1.86085 -22.7599
ltibia 21.474
lfoot -2.72021 -10.6251
ltoes -22.0741
1057
root -8.83397 16.8063 0.784085 7.58765 -26.1015 0.343544
lowerback -4.01335 3.00063 0.597724
upperback -1.10537 3.98515 -0.957216
thorax 1.21957 1.99136 -1.11318
lowerneck -5.22982 11.0239 6.97736
upperneck 33.6815 17.0265 -6.70163
head 13.46 7.58827 -1.5148
rclavicle -6.17009e-014 4.77083e-015
rhumerus -47.8745 -21.8182 -45.2028
rradius 80.1056
rwrist -40.1044
rhand -1.50258 7.24707
rfingers 7.12502
rthumb 24.1504 -21.2527
lclavicle -6.17009e-014 4.77083e-015
lhumerus -46.9121 -33.2711 102.698
lradius 99.8555
lwrist -21.4918
lhand -25.5634 56.5793
lfingers 7.12502
lthumb 0.967437 -273.443
rfemur -15.4739 6.78884 19.4343
rtibia 38.285
rfoot -30.725 -1.85687
rtoes -19.8502
lfemur -38.4049 -1.15287 -22.6732
ltibia 24.2469
lfoot -5.85858 -6.74013
ltoes -23.7949
1058
root -8.80798 16.8543 0.552557 7.71344 -25.0023 0.285514
lowerback -3.93169 3.05592 0.377389
upperback -0.944166 4.06678 -0.774663
thorax 1.31289 2.03249 -0.799352
lowerneck -5.23734 10.9386 6.80845
upperneck 33.544 16.8969 -6.6145
head 13.359 7.53446 -1.47602
rclavicle 1.95958e-014 -2.93207e-015
rhumerus -47.1121 -21.7739 -46.0077
rradius 80.5336
rwrist -39.3091
rhand -1.00335 7.3702
rfingers 7.12502
rthumb 24.629 -21.0651
lclavicle 1.95958e-014 -2.93207e-015
lhumerus -47.3909 -32.7437 103.372
lradius 100.053
lwrist -21.3488
lhand -25.8106 56.2072
lfingers 7.12502
lthumb 0.728686 -273.814
rfemur -16.0352 7.20448 19.9904
rtibia 37.7404
rfoot -29.982 -2.9572
rtoes -17.6727
lfemur -38.4854 -0.920143 -22.4806
ltibia 27.452
lfoot -6.99684 -3.2878
ltoes -20.2973
1059
root -8.78349 16.9089 0.331679 7.84215 -23.6953 0.228498
lowerback -3.77067 3.05892 0.270186
upperback -0.892354 4.07477 -0.706792
thorax 1.2639 2.0364 -0.677851
lowerneck -5.18918 10.8542 6.73171
upperneck 33.3729 16.72 -6.43193
head 13.2268 7.48459 -1.42647
rclavicle 5.46968e-014 1.06101e-014
rhumerus -46.6764 -22.4291 -46.514
rradius 81.0867
rwrist -39.3664
rhand -1.50546 7.12099
rfingers 7.12502
rthumb 24.1476 -21.3791
lclavicle 5.46968e-014 1.06101e-014
lhumerus -47.9707 -32.0236 103.946
lradius 100.067
lwrist -21.315
lhand -25.8271 55.8186
lfingers 7.12502
lthumb 0.712782 -274.203
rfemur -16.5973 7.30712 20.4325
rtibia 37.2327
rfoot -29.152 -3.80981
rtoes -15.6184
lfemur -38.6897 -1.10322 -22.1715
ltibia 31.3619
lfoot -8.09649 -0.217019
ltoes -16.736
1060
root -8.75626 16.9671 0.120773 7.92313 -22.0831 0.0687101
lowerback -3.59858 2.9518 0.295914
upperback -0.814595 3.9302 -0.587433
thorax 1.23872 1.96451 -0.5846
lowerneck -5.1786 10.7695 6.74489
upperneck 33.1498 16.6004 -6.48013
head 13.1224 7.44305 -1.46659
rclavicle 5.19859e-015 1.23246e-014
rhumerus -46.3312 -23.2177 -47.0536
rradius 81.6453
rwrist -39.2137
rhand -1.34847 6.93177
rfingers 7.12502
rthumb 24.2982 -21.5483
lclavicle 5.19859e-015 1.23246e-014
lhumerus -48.4296 -31.0845 104.491
lradius 99.8985
lwrist -21.1169
lhand -25.7237 55.1093
lfingers 7.12502
lthumb 0.812634 -274.912
rfemur -16.9009 6.95737 20.8788
rtibia 36.5349
rfoot -28.4706 -4.23348
rtoes -12.5789
lfemur -38.8917 -1.71622 -21.6732
ltibia 35.7498
lfoot -9.17914 1.91914
ltoes -13.7889
1061
root -8.72399 17.0262 -0.0818616 8.04957 -20.2126 -0.217862
lowerback -3.4562 2.83872 0.532739
upperback -0.75709 3.77003 -0.4656
thorax 1.22301 1.8854 -0.605208
lowerneck -5.2 10.6069 6.92206
upperneck 33.2067 16.3271 -6.40075
head 13.1354 7.35764 -1.50259
rclavicle 1.42418e-014 -1.9953e-014
rhumerus -46.3332 -24.0714 -47.3611
rradius 82.3496
rwrist -39.7234
rhand 0.295445 6.04066
rfingers 7.12502
rthumb 25.8733 -22.2191
lclavicle 1.42418e-014 -1.9953e-014
lhumerus -48.8904 -30.3352 105.008
lradius 99.6788
lwrist -20.7271
lhand -25.4752 54.3086
lfingers 7.12502
lthumb 1.0526 -275.714
rfemur -16.945 6.08698 21.367
rtibia 35.3996
rfoot -27.7457 -4.34979
rtoes -8.9769
lfemur -39.0944 -2.40555 -21.0748
ltibia 40.2745
lfoot -10.0706 3.53795
ltoes -11.0321
1062
root -8.68652 17.0857 -0.277518 8.24438 -18.2478 -0.438526
lowerback -3.48345 2.76875 0.777959
upperback -0.691003 3.66665 -0.367629
thorax 1.31333 1.83497 -0.642614
lowerneck -5.11308 10.5331 6.80505
upperneck 33.0624 16.0843 -5.92551
head 12.9676 7.3093 -1.34861
rclavicle 8.48562e-015 1.69961e-014
rhumerus -46.5456 -24.7609 -47.4342
rradius 82.9497
rwrist -40.6307
rhand -3.48865 8.25624
rfingers 7.12502
rthumb 22.2449 -20.4836
lclavicle 8.48562e-015 1.69961e-014
lhumerus -49.1697 -29.7886 105.497
lradius 99.3825
lwrist -20.2717
lhand -24.9615 53.695
lfingers 7.12502
lthumb 1.54877 -276.331
rfemur -16.883 4.93933 21.737
rtibia 33.8639
rfoot -26.7585 -4.66189
rtoes -6.05931
lfemur -39.3239 -2.86222 -20.6105
ltibia 44.751
lfoot -10.8974 4.63903
ltoes -8.56981
